Coordinates
version=1
nRows=17
nColumns=24
inDegrees=yes

Units are S.I. units (second, meters, Newtons, ...)
Angles are in degrees.

endheader
time	pelvis_tilt	pelvis_list	pelvis_rotation	pelvis_tx	pelvis_ty	pelvis_tz	hip_flexion_r	hip_adduction_r	hip_rotation_r	knee_angle_r	ankle_angle_r	subtalar_angle_r	mtp_angle_r	hip_flexion_l	hip_adduction_l	hip_rotation_l	knee_angle_l	ankle_angle_l	subtalar_angle_l	mtp_angle_l	lumbar_extension	lumbar_bending	lumbar_rotation
      0.88366667	      0.74508268	     -7.06383737	      4.72968414	     -0.32394080	      1.00176242	      0.35015417	     11.01178481	     13.68663739	      0.29335944	    -18.81176964	      2.03324757	    -24.86751074	     -5.13020940	     15.78141233	     -7.61791826	      3.63549135	    -69.25082548	     -4.21239988	    -11.78548508	      5.20765532	     -2.12864636	     10.76585703	      0.57243753
      0.88783333	      0.84687332	     -6.98482778	      4.61080748	     -0.31896747	      1.00273541	      0.35048771	     10.32825443	     13.65281290	      0.43039414	    -18.38681858	      2.10990446	    -24.64798795	     -5.20815814	     16.30061389	     -7.50269297	      3.60887878	    -69.08466425	     -3.61947598	    -11.94751222	      5.13042509	     -2.32287339	     10.68248482	      0.75892598
      0.89200000	      0.92237113	     -6.90497240	      4.49490689	     -0.31397870	      1.00364931	      0.35080154	      9.66765198	     13.60684921	      0.54691282	    -17.95023158	      2.21105825	    -24.38207577	     -5.33361676	     16.83268652	     -7.37984949	      3.59571964	    -68.86200379	     -3.09017076	    -12.05572019	      4.98912119	     -2.46509190	     10.60691836	      1.02955344
      0.89616667	      0.98403055	     -6.79104454	      4.36153606	     -0.30904791	      1.00451431	      0.35109236	      9.05838939	     13.51091867	      0.60967576	    -17.59376831	      2.36103621	    -24.07710847	     -5.71766182	     17.35952030	     -7.21048049	      3.56594944	    -68.58945531	     -2.54882916	    -12.24879748	      4.51252743	     -2.61899690	     10.48064676	      1.33656155
      0.90033333	      1.05255645	     -6.73397420	      4.22468135	     -0.30407798	      1.00536014	      0.35144481	      8.39677872	     13.49133121	      0.77377450	    -17.12796261	      2.38830046	    -23.86852370	     -5.80301912	     17.87507557	     -7.13005391	      3.52434754	    -68.27577847	     -2.07425259	    -12.35263981	      4.40203991	     -2.75341238	     10.42908248	      1.40668147
      0.90450000	      1.10653695	     -6.65756956	      4.07866405	     -0.29914472	      1.00613592	      0.35176996	      7.77653450	     13.43803184	      0.89576950	    -16.71745554	      2.46571165	    -23.62073435	     -5.88896121	     18.38934776	     -7.01927425	      3.48129534	    -67.91755272	     -1.60315148	    -12.46541653	      4.27501544	     -2.88654848	     10.35051960	      1.60769048
      0.90866667	      1.16058941	     -6.58023191	      3.92660712	     -0.29424261	      1.00687607	      0.35209921	      7.16242749	     13.38088665	      1.01878347	    -16.31511818	      2.53835942	    -23.36688657	     -5.95492929	     18.89063010	     -6.90999286	      3.43456430	    -67.51435176	     -1.16727371	    -12.57333721	      4.16285859	     -3.03442306	     10.26306068	      1.79246150
      0.91283333	      1.22856795	     -6.49474316	      3.77422829	     -0.28931704	      1.00762966	      0.35241215	      6.53013307	     13.30935225	      1.12665680	    -15.90847829	      2.61774808	    -23.08991769	     -6.02130935	     19.35134866	     -6.79498922	      3.38099498	    -67.04703273	     -0.77228837	    -12.65176148	      4.03397908	     -3.17879728	     10.17449093	      2.00849453
      0.91700000	      1.26226734	     -6.41587364	      3.60400939	     -0.28441780	      1.00828542	      0.35272701	      5.94502917	     13.23995621	      1.25250948	    -15.51929134	      2.68527348	    -22.82792801	     -6.06849626	     19.83573536	     -6.68669451	      3.32248483	    -66.54107593	     -0.39495200	    -12.71424907	      3.92793826	     -3.28689910	     10.11669057	      2.19333418
      0.92116667	      1.31231082	     -6.33244203	      3.44094517	     -0.27953087	      1.00891752	      0.35305604	      5.34467149	     13.16452399	      1.36120013	    -15.13059937	      2.76887339	    -22.53184817	     -6.11668656	     20.29102613	     -6.57863843	      3.26423897	    -65.99524098	     -0.05133776	    -12.74761892	      3.80217633	     -3.42796435	     10.00723027	      2.42217981
      0.92533333	      1.32319909	     -6.24212858	      3.24775777	     -0.27464755	      1.00948753	      0.35338922	      4.79443376	     13.07732181	      1.50700581	    -14.76292979	      2.82581249	    -22.28429242	     -6.14163427	     20.75993064	     -6.46569579	      3.18385762	    -65.39162687	      0.28032339	    -12.78750878	      3.72275271	     -3.51703560	      9.92649229	      2.57502983
      0.92950000	      1.39607547	     -6.16807515	      3.09286366	     -0.26978594	      1.01007557	      0.35367422	      4.17669648	     13.00216873	      1.59536860	    -14.37845434	      2.92735829	    -21.95123879	     -6.18851664	     21.15997067	     -6.36400198	      3.14618640	    -64.75543523	      0.57438922	    -12.76223498	      3.55706000	     -3.69388584	      9.84534791	      2.87174051
      0.93366667	      1.43019366	     -6.09105311	      2.90985649	     -0.26490368	      1.01058984	      0.35400254	      3.60050969	     12.92310852	      1.71818110	    -13.99810240	      2.99789077	    -21.66807460	     -6.22235062	     21.57593840	     -6.27297340	      3.07408236	    -64.06907752	      0.84785203	    -12.72895900	      3.41428328	     -3.80512253	      9.75695383	      3.08461840
      0.93783333	      1.45576648	     -6.02499557	      2.72096186	     -0.26003375	      1.01104612	      0.35433673	      3.03715467	     12.85399007	      1.85202129	    -13.62190582	      3.06394150	    -21.40436351	     -6.24464303	     21.98721147	     -6.19875537	      2.99852907	    -63.34477180	      1.11079060	    -12.66891753	      3.29891472	     -3.90513015	      9.68088550	      3.28171127
      0.94200000	      1.46034195	     -5.96237326	      2.53464549	     -0.25518707	      1.01142086	      0.35465600	      2.50705637	     12.78461278	      1.98241787	    -13.26245246	      3.14197972	    -21.14035346	     -6.26422666	     22.40913904	     -6.12065827	      2.94145292	    -62.58519088	      1.35968101	    -12.58853480	      3.17478899	     -3.99667062	      9.61713419	      3.50677595
      0.94616667	      1.45471803	     -5.89839617	      2.32934993	     -0.25034174	      1.01175551	      0.35500144	      1.98738688	     12.71375043	      2.15192685	    -12.90431623	      3.19861384	    -20.92171392	     -6.27127432	     22.81731918	     -6.05151436	      2.86328900	    -61.77554776	      1.58655968	    -12.51102277	      3.10793734	     -4.06930409	      9.55353450	      3.64446396
      0.95033333	      1.46966740	     -5.83154646	      2.13581479	     -0.24549283	      1.01208042	      0.35533344	      1.44346764	     12.63670210	      2.30317350	    -12.53825914	      3.26654431	    -20.68126818	     -6.27596251	     23.18475868	     -5.97941718	      2.79452239	    -60.92110098	      1.79926728	    -12.40449700	      3.04208807	     -4.17015559	      9.47694671	      3.83626659
